<mxfile host="app.diagrams.net" modified="2022-11-08T06:20:27.678Z" agent="5.0 (Windows NT 10.0; Win64; x64) AppleWebKit/537.36 (KHTML, like Gecko) Chrome/107.0.0.0 Safari/537.36" etag="dmRGUr3cxwkzk7uqoF4B" version="20.5.1" type="github">
  <diagram id="C5RBs43oDa-KdzZeNtuy" name="Page-1">
    <mxGraphModel dx="868" dy="482" grid="1" gridSize="10" guides="1" tooltips="1" connect="1" arrows="1" fold="1" page="1" pageScale="1" pageWidth="827" pageHeight="1169" math="0" shadow="0">
      <root>
        <mxCell id="WIyWlLk6GJQsqaUBKTNV-0" />
        <mxCell id="WIyWlLk6GJQsqaUBKTNV-1" parent="WIyWlLk6GJQsqaUBKTNV-0" />
        <mxCell id="_SGaKsd09h3nNTtajKEc-3" style="edgeStyle=orthogonalEdgeStyle;rounded=0;orthogonalLoop=1;jettySize=auto;html=1;entryX=0.5;entryY=0;entryDx=0;entryDy=0;" edge="1" parent="WIyWlLk6GJQsqaUBKTNV-1" source="_SGaKsd09h3nNTtajKEc-1" target="_SGaKsd09h3nNTtajKEc-2">
          <mxGeometry relative="1" as="geometry" />
        </mxCell>
        <mxCell id="_SGaKsd09h3nNTtajKEc-1" value="Start" style="rounded=1;whiteSpace=wrap;html=1;arcSize=50;" vertex="1" parent="WIyWlLk6GJQsqaUBKTNV-1">
          <mxGeometry x="30" y="70" width="120" height="30" as="geometry" />
        </mxCell>
        <mxCell id="_SGaKsd09h3nNTtajKEc-5" style="edgeStyle=orthogonalEdgeStyle;rounded=0;orthogonalLoop=1;jettySize=auto;html=1;entryX=0.5;entryY=0;entryDx=0;entryDy=0;" edge="1" parent="WIyWlLk6GJQsqaUBKTNV-1" source="_SGaKsd09h3nNTtajKEc-2" target="_SGaKsd09h3nNTtajKEc-4">
          <mxGeometry relative="1" as="geometry" />
        </mxCell>
        <mxCell id="_SGaKsd09h3nNTtajKEc-2" value="Logged In Successfully" style="rounded=1;whiteSpace=wrap;html=1;" vertex="1" parent="WIyWlLk6GJQsqaUBKTNV-1">
          <mxGeometry x="30" y="140" width="120" height="40" as="geometry" />
        </mxCell>
        <mxCell id="_SGaKsd09h3nNTtajKEc-8" style="edgeStyle=orthogonalEdgeStyle;rounded=0;orthogonalLoop=1;jettySize=auto;html=1;entryX=0.5;entryY=0;entryDx=0;entryDy=0;" edge="1" parent="WIyWlLk6GJQsqaUBKTNV-1" source="_SGaKsd09h3nNTtajKEc-4" target="_SGaKsd09h3nNTtajKEc-7">
          <mxGeometry relative="1" as="geometry" />
        </mxCell>
        <mxCell id="_SGaKsd09h3nNTtajKEc-4" value="Click on Apply &lt;br&gt;Leaves" style="rounded=1;whiteSpace=wrap;html=1;" vertex="1" parent="WIyWlLk6GJQsqaUBKTNV-1">
          <mxGeometry x="30" y="220" width="120" height="40" as="geometry" />
        </mxCell>
        <mxCell id="_SGaKsd09h3nNTtajKEc-10" style="edgeStyle=orthogonalEdgeStyle;rounded=0;orthogonalLoop=1;jettySize=auto;html=1;entryX=0.5;entryY=0;entryDx=0;entryDy=0;" edge="1" parent="WIyWlLk6GJQsqaUBKTNV-1" source="_SGaKsd09h3nNTtajKEc-7" target="_SGaKsd09h3nNTtajKEc-9">
          <mxGeometry relative="1" as="geometry" />
        </mxCell>
        <mxCell id="_SGaKsd09h3nNTtajKEc-7" value="Select Date Range" style="rounded=1;whiteSpace=wrap;html=1;" vertex="1" parent="WIyWlLk6GJQsqaUBKTNV-1">
          <mxGeometry x="30" y="300" width="120" height="40" as="geometry" />
        </mxCell>
        <mxCell id="_SGaKsd09h3nNTtajKEc-13" style="edgeStyle=orthogonalEdgeStyle;rounded=0;orthogonalLoop=1;jettySize=auto;html=1;entryX=0;entryY=0.5;entryDx=0;entryDy=0;" edge="1" parent="WIyWlLk6GJQsqaUBKTNV-1" source="_SGaKsd09h3nNTtajKEc-9" target="_SGaKsd09h3nNTtajKEc-12">
          <mxGeometry relative="1" as="geometry" />
        </mxCell>
        <mxCell id="_SGaKsd09h3nNTtajKEc-9" value="Half of Full" style="rounded=1;whiteSpace=wrap;html=1;" vertex="1" parent="WIyWlLk6GJQsqaUBKTNV-1">
          <mxGeometry x="30" y="370" width="120" height="40" as="geometry" />
        </mxCell>
        <mxCell id="_SGaKsd09h3nNTtajKEc-22" style="edgeStyle=orthogonalEdgeStyle;rounded=0;orthogonalLoop=1;jettySize=auto;html=1;entryX=0;entryY=0.5;entryDx=0;entryDy=0;" edge="1" parent="WIyWlLk6GJQsqaUBKTNV-1" source="_SGaKsd09h3nNTtajKEc-12" target="_SGaKsd09h3nNTtajKEc-14">
          <mxGeometry relative="1" as="geometry" />
        </mxCell>
        <mxCell id="_SGaKsd09h3nNTtajKEc-23" style="edgeStyle=orthogonalEdgeStyle;rounded=0;orthogonalLoop=1;jettySize=auto;html=1;entryX=0;entryY=0.5;entryDx=0;entryDy=0;" edge="1" parent="WIyWlLk6GJQsqaUBKTNV-1" source="_SGaKsd09h3nNTtajKEc-12" target="_SGaKsd09h3nNTtajKEc-15">
          <mxGeometry relative="1" as="geometry" />
        </mxCell>
        <mxCell id="_SGaKsd09h3nNTtajKEc-24" style="edgeStyle=orthogonalEdgeStyle;rounded=0;orthogonalLoop=1;jettySize=auto;html=1;entryX=0;entryY=0.5;entryDx=0;entryDy=0;" edge="1" parent="WIyWlLk6GJQsqaUBKTNV-1" source="_SGaKsd09h3nNTtajKEc-12" target="_SGaKsd09h3nNTtajKEc-16">
          <mxGeometry relative="1" as="geometry" />
        </mxCell>
        <mxCell id="_SGaKsd09h3nNTtajKEc-25" style="edgeStyle=orthogonalEdgeStyle;rounded=0;orthogonalLoop=1;jettySize=auto;html=1;entryX=0;entryY=0.5;entryDx=0;entryDy=0;" edge="1" parent="WIyWlLk6GJQsqaUBKTNV-1" source="_SGaKsd09h3nNTtajKEc-12" target="_SGaKsd09h3nNTtajKEc-17">
          <mxGeometry relative="1" as="geometry" />
        </mxCell>
        <mxCell id="_SGaKsd09h3nNTtajKEc-26" style="edgeStyle=orthogonalEdgeStyle;rounded=0;orthogonalLoop=1;jettySize=auto;html=1;entryX=0;entryY=0.5;entryDx=0;entryDy=0;" edge="1" parent="WIyWlLk6GJQsqaUBKTNV-1" source="_SGaKsd09h3nNTtajKEc-12" target="_SGaKsd09h3nNTtajKEc-18">
          <mxGeometry relative="1" as="geometry" />
        </mxCell>
        <mxCell id="_SGaKsd09h3nNTtajKEc-27" style="edgeStyle=orthogonalEdgeStyle;rounded=0;orthogonalLoop=1;jettySize=auto;html=1;entryX=0;entryY=0.5;entryDx=0;entryDy=0;" edge="1" parent="WIyWlLk6GJQsqaUBKTNV-1" source="_SGaKsd09h3nNTtajKEc-12" target="_SGaKsd09h3nNTtajKEc-19">
          <mxGeometry relative="1" as="geometry" />
        </mxCell>
        <mxCell id="_SGaKsd09h3nNTtajKEc-28" style="edgeStyle=orthogonalEdgeStyle;rounded=0;orthogonalLoop=1;jettySize=auto;html=1;entryX=0;entryY=0.5;entryDx=0;entryDy=0;" edge="1" parent="WIyWlLk6GJQsqaUBKTNV-1" source="_SGaKsd09h3nNTtajKEc-12" target="_SGaKsd09h3nNTtajKEc-20">
          <mxGeometry relative="1" as="geometry" />
        </mxCell>
        <mxCell id="_SGaKsd09h3nNTtajKEc-29" style="edgeStyle=orthogonalEdgeStyle;rounded=0;orthogonalLoop=1;jettySize=auto;html=1;entryX=0;entryY=0.5;entryDx=0;entryDy=0;" edge="1" parent="WIyWlLk6GJQsqaUBKTNV-1" source="_SGaKsd09h3nNTtajKEc-12" target="_SGaKsd09h3nNTtajKEc-21">
          <mxGeometry relative="1" as="geometry" />
        </mxCell>
        <mxCell id="_SGaKsd09h3nNTtajKEc-12" value="Select&amp;nbsp;&lt;br&gt;Leave &lt;br&gt;Type" style="rhombus;whiteSpace=wrap;html=1;" vertex="1" parent="WIyWlLk6GJQsqaUBKTNV-1">
          <mxGeometry x="200" y="195" width="90" height="90" as="geometry" />
        </mxCell>
        <mxCell id="_SGaKsd09h3nNTtajKEc-32" style="edgeStyle=orthogonalEdgeStyle;rounded=0;orthogonalLoop=1;jettySize=auto;html=1;entryX=0;entryY=0.5;entryDx=0;entryDy=0;" edge="1" parent="WIyWlLk6GJQsqaUBKTNV-1" source="_SGaKsd09h3nNTtajKEc-14" target="_SGaKsd09h3nNTtajKEc-30">
          <mxGeometry relative="1" as="geometry" />
        </mxCell>
        <mxCell id="_SGaKsd09h3nNTtajKEc-14" value="Compensatory" style="rounded=1;whiteSpace=wrap;html=1;" vertex="1" parent="WIyWlLk6GJQsqaUBKTNV-1">
          <mxGeometry x="330" y="20" width="120" height="40" as="geometry" />
        </mxCell>
        <mxCell id="_SGaKsd09h3nNTtajKEc-39" style="edgeStyle=orthogonalEdgeStyle;rounded=0;orthogonalLoop=1;jettySize=auto;html=1;entryX=0;entryY=0.5;entryDx=0;entryDy=0;" edge="1" parent="WIyWlLk6GJQsqaUBKTNV-1" source="_SGaKsd09h3nNTtajKEc-15" target="_SGaKsd09h3nNTtajKEc-38">
          <mxGeometry relative="1" as="geometry" />
        </mxCell>
        <mxCell id="_SGaKsd09h3nNTtajKEc-15" value="EMS Event" style="rounded=1;whiteSpace=wrap;html=1;" vertex="1" parent="WIyWlLk6GJQsqaUBKTNV-1">
          <mxGeometry x="330" y="140" width="120" height="40" as="geometry" />
        </mxCell>
        <mxCell id="_SGaKsd09h3nNTtajKEc-36" style="edgeStyle=orthogonalEdgeStyle;rounded=0;orthogonalLoop=1;jettySize=auto;html=1;entryX=0;entryY=0.5;entryDx=0;entryDy=0;" edge="1" parent="WIyWlLk6GJQsqaUBKTNV-1" source="_SGaKsd09h3nNTtajKEc-16" target="_SGaKsd09h3nNTtajKEc-34">
          <mxGeometry relative="1" as="geometry" />
        </mxCell>
        <mxCell id="_SGaKsd09h3nNTtajKEc-16" value="Floater Holiday" style="rounded=1;whiteSpace=wrap;html=1;" vertex="1" parent="WIyWlLk6GJQsqaUBKTNV-1">
          <mxGeometry x="330" y="80" width="120" height="40" as="geometry" />
        </mxCell>
        <mxCell id="_SGaKsd09h3nNTtajKEc-40" style="edgeStyle=orthogonalEdgeStyle;rounded=0;orthogonalLoop=1;jettySize=auto;html=1;entryX=0;entryY=0.5;entryDx=0;entryDy=0;" edge="1" parent="WIyWlLk6GJQsqaUBKTNV-1" source="_SGaKsd09h3nNTtajKEc-17" target="_SGaKsd09h3nNTtajKEc-38">
          <mxGeometry relative="1" as="geometry" />
        </mxCell>
        <mxCell id="_SGaKsd09h3nNTtajKEc-17" value="Missed Attendance Scan" style="rounded=1;whiteSpace=wrap;html=1;" vertex="1" parent="WIyWlLk6GJQsqaUBKTNV-1">
          <mxGeometry x="330" y="195" width="120" height="40" as="geometry" />
        </mxCell>
        <mxCell id="_SGaKsd09h3nNTtajKEc-43" style="edgeStyle=orthogonalEdgeStyle;rounded=0;orthogonalLoop=1;jettySize=auto;html=1;entryX=0;entryY=0.5;entryDx=0;entryDy=0;" edge="1" parent="WIyWlLk6GJQsqaUBKTNV-1" source="_SGaKsd09h3nNTtajKEc-18" target="_SGaKsd09h3nNTtajKEc-38">
          <mxGeometry relative="1" as="geometry" />
        </mxCell>
        <mxCell id="_SGaKsd09h3nNTtajKEc-18" value="Probation" style="rounded=1;whiteSpace=wrap;html=1;" vertex="1" parent="WIyWlLk6GJQsqaUBKTNV-1">
          <mxGeometry x="330" y="250" width="120" height="40" as="geometry" />
        </mxCell>
        <mxCell id="_SGaKsd09h3nNTtajKEc-44" style="edgeStyle=orthogonalEdgeStyle;rounded=0;orthogonalLoop=1;jettySize=auto;html=1;entryX=0;entryY=0.5;entryDx=0;entryDy=0;" edge="1" parent="WIyWlLk6GJQsqaUBKTNV-1" source="_SGaKsd09h3nNTtajKEc-19" target="_SGaKsd09h3nNTtajKEc-38">
          <mxGeometry relative="1" as="geometry" />
        </mxCell>
        <mxCell id="_SGaKsd09h3nNTtajKEc-19" value="Probation Unpaid" style="rounded=1;whiteSpace=wrap;html=1;" vertex="1" parent="WIyWlLk6GJQsqaUBKTNV-1">
          <mxGeometry x="330" y="310" width="120" height="40" as="geometry" />
        </mxCell>
        <mxCell id="_SGaKsd09h3nNTtajKEc-45" style="edgeStyle=orthogonalEdgeStyle;rounded=0;orthogonalLoop=1;jettySize=auto;html=1;entryX=0;entryY=0.5;entryDx=0;entryDy=0;" edge="1" parent="WIyWlLk6GJQsqaUBKTNV-1" source="_SGaKsd09h3nNTtajKEc-20" target="_SGaKsd09h3nNTtajKEc-38">
          <mxGeometry relative="1" as="geometry" />
        </mxCell>
        <mxCell id="_SGaKsd09h3nNTtajKEc-20" value="Telecommuting" style="rounded=1;whiteSpace=wrap;html=1;" vertex="1" parent="WIyWlLk6GJQsqaUBKTNV-1">
          <mxGeometry x="330" y="370" width="120" height="40" as="geometry" />
        </mxCell>
        <mxCell id="_SGaKsd09h3nNTtajKEc-46" style="edgeStyle=orthogonalEdgeStyle;rounded=0;orthogonalLoop=1;jettySize=auto;html=1;entryX=0;entryY=0.5;entryDx=0;entryDy=0;" edge="1" parent="WIyWlLk6GJQsqaUBKTNV-1" source="_SGaKsd09h3nNTtajKEc-21" target="_SGaKsd09h3nNTtajKEc-38">
          <mxGeometry relative="1" as="geometry" />
        </mxCell>
        <mxCell id="_SGaKsd09h3nNTtajKEc-21" value="Work From Home" style="rounded=1;whiteSpace=wrap;html=1;" vertex="1" parent="WIyWlLk6GJQsqaUBKTNV-1">
          <mxGeometry x="330" y="425" width="120" height="40" as="geometry" />
        </mxCell>
        <mxCell id="_SGaKsd09h3nNTtajKEc-33" style="edgeStyle=orthogonalEdgeStyle;rounded=0;orthogonalLoop=1;jettySize=auto;html=1;entryX=0;entryY=0.5;entryDx=0;entryDy=0;" edge="1" parent="WIyWlLk6GJQsqaUBKTNV-1" source="_SGaKsd09h3nNTtajKEc-30" target="_SGaKsd09h3nNTtajKEc-31">
          <mxGeometry relative="1" as="geometry" />
        </mxCell>
        <mxCell id="_SGaKsd09h3nNTtajKEc-30" value="Compensatory Date" style="rounded=1;whiteSpace=wrap;html=1;" vertex="1" parent="WIyWlLk6GJQsqaUBKTNV-1">
          <mxGeometry x="500" y="20" width="120" height="40" as="geometry" />
        </mxCell>
        <mxCell id="_SGaKsd09h3nNTtajKEc-51" style="edgeStyle=orthogonalEdgeStyle;rounded=0;orthogonalLoop=1;jettySize=auto;html=1;entryX=1;entryY=0.5;entryDx=0;entryDy=0;" edge="1" parent="WIyWlLk6GJQsqaUBKTNV-1" source="_SGaKsd09h3nNTtajKEc-31" target="_SGaKsd09h3nNTtajKEc-38">
          <mxGeometry relative="1" as="geometry">
            <Array as="points">
              <mxPoint x="800" y="40" />
              <mxPoint x="800" y="270" />
            </Array>
          </mxGeometry>
        </mxCell>
        <mxCell id="_SGaKsd09h3nNTtajKEc-31" value="Compensatory Note" style="rounded=1;whiteSpace=wrap;html=1;" vertex="1" parent="WIyWlLk6GJQsqaUBKTNV-1">
          <mxGeometry x="660" y="20" width="120" height="40" as="geometry" />
        </mxCell>
        <mxCell id="_SGaKsd09h3nNTtajKEc-37" style="edgeStyle=orthogonalEdgeStyle;rounded=0;orthogonalLoop=1;jettySize=auto;html=1;entryX=0;entryY=0.5;entryDx=0;entryDy=0;" edge="1" parent="WIyWlLk6GJQsqaUBKTNV-1" source="_SGaKsd09h3nNTtajKEc-34" target="_SGaKsd09h3nNTtajKEc-35">
          <mxGeometry relative="1" as="geometry" />
        </mxCell>
        <mxCell id="_SGaKsd09h3nNTtajKEc-34" value="Floater Holiday Date" style="rounded=1;whiteSpace=wrap;html=1;" vertex="1" parent="WIyWlLk6GJQsqaUBKTNV-1">
          <mxGeometry x="500" y="80" width="120" height="40" as="geometry" />
        </mxCell>
        <mxCell id="_SGaKsd09h3nNTtajKEc-52" style="edgeStyle=orthogonalEdgeStyle;rounded=0;orthogonalLoop=1;jettySize=auto;html=1;entryX=0.5;entryY=0;entryDx=0;entryDy=0;" edge="1" parent="WIyWlLk6GJQsqaUBKTNV-1" source="_SGaKsd09h3nNTtajKEc-35" target="_SGaKsd09h3nNTtajKEc-38">
          <mxGeometry relative="1" as="geometry" />
        </mxCell>
        <mxCell id="_SGaKsd09h3nNTtajKEc-35" value="Floater Holiday Notes" style="rounded=1;whiteSpace=wrap;html=1;" vertex="1" parent="WIyWlLk6GJQsqaUBKTNV-1">
          <mxGeometry x="660" y="80" width="120" height="40" as="geometry" />
        </mxCell>
        <mxCell id="_SGaKsd09h3nNTtajKEc-57" style="edgeStyle=orthogonalEdgeStyle;rounded=0;orthogonalLoop=1;jettySize=auto;html=1;entryX=0.5;entryY=0;entryDx=0;entryDy=0;" edge="1" parent="WIyWlLk6GJQsqaUBKTNV-1" source="_SGaKsd09h3nNTtajKEc-38" target="_SGaKsd09h3nNTtajKEc-56">
          <mxGeometry relative="1" as="geometry" />
        </mxCell>
        <mxCell id="_SGaKsd09h3nNTtajKEc-38" value="Reason" style="rounded=1;whiteSpace=wrap;html=1;" vertex="1" parent="WIyWlLk6GJQsqaUBKTNV-1">
          <mxGeometry x="580" y="250" width="120" height="40" as="geometry" />
        </mxCell>
        <mxCell id="_SGaKsd09h3nNTtajKEc-53" value="End" style="rounded=1;whiteSpace=wrap;html=1;arcSize=50;" vertex="1" parent="WIyWlLk6GJQsqaUBKTNV-1">
          <mxGeometry x="580" y="410" width="120" height="30" as="geometry" />
        </mxCell>
        <mxCell id="_SGaKsd09h3nNTtajKEc-58" style="edgeStyle=orthogonalEdgeStyle;rounded=0;orthogonalLoop=1;jettySize=auto;html=1;entryX=0.5;entryY=0;entryDx=0;entryDy=0;" edge="1" parent="WIyWlLk6GJQsqaUBKTNV-1" source="_SGaKsd09h3nNTtajKEc-56" target="_SGaKsd09h3nNTtajKEc-53">
          <mxGeometry relative="1" as="geometry" />
        </mxCell>
        <mxCell id="_SGaKsd09h3nNTtajKEc-56" value="Apply" style="rounded=1;whiteSpace=wrap;html=1;" vertex="1" parent="WIyWlLk6GJQsqaUBKTNV-1">
          <mxGeometry x="580" y="330" width="120" height="40" as="geometry" />
        </mxCell>
      </root>
    </mxGraphModel>
  </diagram>
</mxfile>
